<svg width="32" height="32" viewBox="0 0 32 32" fill="none" xmlns="http://www.w3.org/2000/svg">
  <!-- Background circle with gradient -->
  <defs>
    <linearGradient id="botGradient" x1="0%" y1="0%" x2="100%" y2="100%">
      <stop offset="0%" style="stop-color:#667eea;stop-opacity:1" />
      <stop offset="100%" style="stop-color:#764ba2;stop-opacity:1" />
    </linearGradient>
    <linearGradient id="eyeGlow" x1="0%" y1="0%" x2="100%" y2="100%">
      <stop offset="0%" style="stop-color:#00f5ff;stop-opacity:1" />
      <stop offset="100%" style="stop-color:#0080ff;stop-opacity:1" />
    </linearGradient>
  </defs>
  
  <!-- Main bot head -->
  <circle cx="16" cy="16" r="15" fill="url(#botGradient)" stroke="#4f46e5" stroke-width="1"/>
  
  <!-- Bot face elements -->
  <!-- Eyes -->
  <circle cx="12" cy="13" r="2.5" fill="url(#eyeGlow)"/>
  <circle cx="20" cy="13" r="2.5" fill="url(#eyeGlow)"/>
  
  <!-- Eye highlights -->
  <circle cx="12.5" cy="12.5" r="0.8" fill="white" opacity="0.8"/>
  <circle cx="20.5" cy="12.5" r="0.8" fill="white" opacity="0.8"/>
  
  <!-- Mouth/speaker grille -->
  <rect x="13" y="19" width="6" height="1.5" rx="0.75" fill="white" opacity="0.7"/>
  <rect x="12" y="21" width="8" height="1" rx="0.5" fill="white" opacity="0.5"/>
  <rect x="14" y="22.5" width="4" height="0.8" rx="0.4" fill="white" opacity="0.3"/>
  
  <!-- Antenna -->
  <line x1="16" y1="3" x2="16" y2="1" stroke="#4f46e5" stroke-width="1.5" stroke-linecap="round"/>
  <circle cx="16" cy="1" r="1.5" fill="#00f5ff"/>
  
  <!-- Subtle circuit pattern -->
  <path d="M6 10 L10 10 L10 14" stroke="white" stroke-width="0.5" fill="none" opacity="0.3"/>
  <path d="M26 22 L22 22 L22 18" stroke="white" stroke-width="0.5" fill="none" opacity="0.3"/>
  <circle cx="10" cy="14" r="0.5" fill="white" opacity="0.3"/>
  <circle cx="22" cy="18" r="0.5" fill="white" opacity="0.3"/>
</svg>